Coordinates
version=1
nRows=24
nColumns=22
inDegrees=yes

Units are S.I. units (second, meters, Newtons, ...)
If the header above contains a line with 'inDegrees', this indicates whether rotational values are in degrees (yes) or radians (no).

endheader
time	pelvis_tilt	pelvis_list	pelvis_rotation	pelvis_tx	pelvis_ty	pelvis_tz	hip_flexion_r	hip_adduction_r	hip_rotation_r	knee_angle_r	ankle_angle_r	subtalar_angle_r	hip_flexion_l	hip_adduction_l	hip_rotation_l	knee_angle_l	ankle_angle_l	subtalar_angle_l	lumbar_extension	lumbar_bending	lumbar_rotation
      2.67000000	     -4.31125146	     -1.88978372	    -32.89122349	     -0.59131610	      0.93624694	      0.19358562	     -2.56148060	     12.87231918	      6.95008001	    -15.03842791	     16.61437534	     -4.17343353	     32.30567868	     -4.48315107	      9.57416191	    -24.01481533	      7.82663227	      9.39348565	     -6.88246535	      2.62291206	     15.57105325
      2.68000000	     -4.45736089	     -1.81094046	    -33.34245323	     -0.58457826	      0.93500682	      0.19780443	     -2.78090090	     12.84582243	      7.33753689	    -15.38586257	     16.79483630	     -4.17266778	     32.27170229	     -4.53814656	      9.28561130	    -22.07048230	      8.03726088	      9.32277207	     -6.76801256	      2.56571007	     15.68153212
      2.69000000	     -4.58814409	     -1.73541900	    -33.81116161	     -0.57770202	      0.93380602	      0.20208827	     -3.00335732	     12.80522517	      7.73015438	    -15.77715472	     16.95398192	     -4.14976046	     32.24202756	     -4.59278070	      8.78166985	    -20.45300015	      8.25632568	      9.21540249	     -6.65835032	      2.50585658	     15.81067845
      2.70000000	     -4.70446594	     -1.66025228	    -34.28930183	     -0.57069378	      0.93265370	      0.20642665	     -3.22246168	     12.74941993	      8.12858038	    -16.21502472	     17.08174137	     -4.10114171	     32.21992026	     -4.62483498	      8.13430806	    -19.18457637	      8.46198969	      9.08522396	     -6.55148825	      2.43847999	     15.92564714
      2.71000000	     -4.80227461	     -1.58217200	    -34.77117184	     -0.56352585	      0.93156994	      0.21082561	     -3.44380679	     12.67405885	      8.54727511	    -16.69530187	     17.17920689	     -4.01824993	     32.20089767	     -4.61769803	      7.41109799	    -18.27893650	      8.62427789	      8.93541516	     -6.44441479	      2.36019810	     16.01684493
      2.72000000	     -4.90010551	     -1.49488638	    -35.24545624	     -0.55618473	      0.93053616	      0.21529379	     -3.65212431	     12.58250382	      8.94583039	    -17.20161881	     17.23801500	     -3.91771676	     32.19487505	     -4.56811472	      6.71963367	    -17.72030626	      8.72501298	      8.78291492	     -6.30945111	      2.27577848	     16.09273710
      2.73000000	     -4.98792203	     -1.40431292	    -35.71389286	     -0.54869711	      0.92958096	      0.21984941	     -3.85637986	     12.48056459	      9.36620807	    -17.74270529	     17.26392955	     -3.78079565	     32.18791007	     -4.47916077	      6.12396832	    -17.49552128	      8.72126456	      8.59168859	     -6.16271517	      2.18003674	     16.13605710
      2.74000000	     -5.07032586	     -1.30271194	    -36.16982374	     -0.54105897	      0.92869833	      0.22448726	     -4.04367544	     12.36444772	      9.80003060	    -18.32315122	     17.25528023	     -3.57693855	     32.18211339	     -4.34448677	      5.71437942	    -17.57074817	      8.58904956	      8.27513260	     -5.99424842	      2.06924933	     16.16048935
      2.75000000	     -5.15665260	     -1.18525265	    -36.61469558	     -0.53328629	      0.92790475	      0.22924373	     -4.19612211	     12.23727613	     10.20395707	    -18.94646401	     17.15870664	     -3.36323280	     32.17537241	     -4.17909580	      5.47739249	    -17.87900384	      8.29382084	      7.85643570	     -5.78761162	      1.93792024	     16.16274074
      2.76000000	     -5.24460137	     -1.07235572	    -37.02228962	     -0.52538061	      0.92723055	      0.23404957	     -4.32000682	     12.11715227	     10.57015395	    -19.61864338	     16.97118276	     -3.07290615	     32.16641900	     -3.98682934	      5.45011774	    -18.37988826	      7.75142827	      7.17079555	     -5.56779970	      1.81490747	     16.09805602
      2.77000000	     -5.32703285	     -0.91408475	    -37.46246435	     -0.51744044	      0.92667253	      0.23903970	     -4.38916183	     11.97003473	     11.03328913	    -20.35878549	     16.73805338	     -2.85974846	     32.16208545	     -3.78262112	      5.50727127	    -19.01131946	      7.11749087	      6.56206726	     -5.30414994	      1.62877617	     16.05677748
      2.78000000	     -5.41013907	     -0.75904255	    -37.85268853	     -0.50939410	      0.92627294	      0.24406806	     -4.41195060	     11.83424612	     11.42788261	    -21.16574144	     16.39171844	     -2.56397950	     32.17256742	     -3.56436059	      5.70493311	    -19.75039354	      6.27560008	      5.71962941	     -5.03007154	      1.44339932	     15.95037598
      2.79000000	     -5.46753604	     -0.61384361	    -38.21641811	     -0.50124680	      0.92609546	      0.24915304	     -4.40378225	     11.69928363	     11.77385981	    -22.06135811	     15.93385018	     -2.19764136	     32.17290066	     -3.34969831	      5.91611665	    -20.56592415	      5.36181082	      4.87628589	     -4.77529679	      1.24793378	     15.81699471
      2.80000000	     -5.51736276	     -0.44325423	    -38.55778317	     -0.49300442	      0.92611084	      0.25435235	     -4.31585633	     11.55623450	     12.09810833	    -23.06261443	     15.35458976	     -1.76510920	     32.18206102	     -3.13847593	      6.09314812	    -21.40898019	      4.46352635	      4.15964739	     -4.49129210	      1.01339354	     15.63805890
      2.81000000	     -5.55111902	     -0.27483288	    -38.86045909	     -0.48462840	      0.92634874	      0.25959570	     -4.15368005	     11.41633125	     12.34284190	    -24.19084169	     14.63388536	     -1.20583692	     32.17383159	     -2.94153781	      6.21064272	    -22.25726520	      3.62900937	      3.60668115	     -4.20937349	      0.77315038	     15.41162621
      2.82000000	     -5.57159940	     -0.11082125	    -39.13780799	     -0.47617267	      0.92679923	      0.26490635	     -3.89021467	     11.28614315	     12.49874708	    -25.47999379	     13.76946529	     -0.47819299	     32.13094497	     -2.77388610	      6.24484879	    -23.08169999	      2.90894287	      3.27575498	     -3.93206010	      0.52572352	     15.14265074
      2.83000000	     -5.57486337	      0.03417789	    -39.40002212	     -0.46768482	      0.92745882	      0.27026108	     -3.51800459	     11.16893303	     12.55170298	    -26.94717979	     12.73769825	      0.58407949	     32.03090730	     -2.64976382	      6.17479238	    -23.86513274	      2.35662755	      3.14440179	     -3.68141265	      0.28221052	     14.83752152
      2.84000000	     -5.55376132	      0.16280883	    -39.66386941	     -0.45922287	      0.92830537	      0.27563890	     -3.02426584	     11.05493072	     12.51255099	    -28.60675559	     11.53150516	      1.95859349	     31.85169178	     -2.56656126	      5.98624220	    -24.57589762	      1.99692728	      3.21749613	     -3.47046492	      0.04037579	     14.49852481
      2.85000000	     -5.52338753	      0.28376588	    -39.94642718	     -0.45091395	      0.92926069	      0.28099462	     -2.35215827	     10.94392301	     12.36916512	    -30.50182240	     10.18766060	      3.64287022	     31.61277228	     -2.52599405	      5.69880106	    -25.20414896	      1.78879978	      3.39170414	     -3.29442776	     -0.20126419	     14.15661104
      2.86000000	     -5.47459122	      0.39402592	    -40.23706142	     -0.44275201	      0.93028861	      0.28628747	     -1.51648733	     10.82135712	     12.11404448	    -32.60600755	      8.72144636	      5.66069035	     31.30236603	     -2.50606557	      5.33480692	    -25.74222487	      1.73863763	      3.57868585	     -3.16640502	     -0.44097367	     13.78526972
      2.87000000	     -5.39513069	      0.49456370	    -40.52454808	     -0.43475197	      0.93134576	      0.29146343	     -0.53417166	     10.66951347	     11.75166317	    -34.89132867	      7.17891546	      7.97553758	     30.92554682	     -2.47533611	      4.93367349	    -26.21013476	      1.83315489	      3.71303300	     -3.10240111	     -0.68650047	     13.37463069
      2.88000000	     -5.29982618	      0.59858694	    -40.80380382	     -0.42693108	      0.93233886	      0.29649493	      0.61094825	     10.47497259	     11.26591768	    -37.33959949	      5.66601473	     10.43625699	     30.50988654	     -2.42710311	      4.48687771	    -26.60890955	      2.06270466	      3.75437487	     -3.08027234	     -0.93329202	     12.89274174
      2.89000000	     -5.15990500	      0.69879736	    -41.07366551	     -0.41929648	      0.93328623	      0.30136230	      1.86243067	     10.21439366	     10.68163194	    -39.89842440	      4.26945615	     12.93743341	     30.02495124	     -2.33835856	      4.02125546	    -26.93389100	      2.37901967	      3.69571261	     -3.13324889	     -1.19573008	     12.34284342
      2.90000000	     -4.97977653	      0.80413886	    -41.32704489	     -0.41183948	      0.93414386	      0.30604112	      3.20742528	      9.87434876	     10.00580699	    -42.52719377	      3.09020968	     15.26216068	     29.48804108	     -2.19732108	      3.55160977	    -27.19407532	      2.77266801	      3.54243134	     -3.24858264	     -1.47492805	     11.71810375
